<svg xmlns="http://www.w3.org/2000/svg" xmlns:xlink="http://www.w3.org/1999/xlink" width="1000" zoomAndPan="magnify" viewBox="0 0 750 749.999995" height="1000" preserveAspectRatio="xMidYMid meet" version="1.0"><path fill="#000000" d="M 551.589844 519.878906 L 523.742188 450.25 C 522.972656 448.328125 521.933594 446.585938 520.707031 445.019531 C 524.371094 440.921875 526.671875 435.578125 526.671875 429.648438 L 526.671875 255.34375 C 526.671875 242.59375 516.25 232.175781 503.503906 232.175781 L 454.953125 232.175781 L 437.773438 248.082031 L 503.503906 248.082031 C 507.496094 248.082031 510.765625 251.351562 510.765625 255.34375 L 510.765625 429.648438 C 510.765625 433.597656 507.558594 436.867188 503.625 436.941406 L 247.933594 436.941406 C 243.949219 436.867188 240.742188 433.597656 240.742188 429.648438 L 240.742188 255.34375 C 240.742188 251.351562 244.011719 248.082031 248.058594 248.082031 L 373.703125 248.082031 L 388.445312 232.175781 L 248.058594 232.175781 C 235.253906 232.175781 224.835938 242.59375 224.835938 255.34375 L 224.835938 429.648438 C 224.835938 435.574219 227.132812 440.921875 230.800781 445.015625 C 229.574219 446.582031 228.535156 448.332031 227.765625 450.253906 L 199.914062 519.878906 C 197.300781 526.410156 198.097656 533.792969 202.042969 539.613281 C 205.988281 545.441406 212.542969 548.921875 219.582031 548.921875 L 531.925781 548.921875 C 538.960938 548.921875 545.519531 545.441406 549.464844 539.613281 C 553.410156 533.789062 554.207031 526.410156 551.589844 519.878906 Z M 536.308594 530.710938 C 535.839844 531.410156 534.464844 533.039062 531.925781 533.039062 L 219.582031 533.039062 C 217.042969 533.039062 215.664062 531.410156 215.191406 530.710938 C 214.71875 530.011719 213.71875 528.132812 214.660156 525.773438 L 242.511719 456.152344 C 243.320312 454.132812 245.25 452.824219 247.429688 452.824219 L 504.078125 452.824219 C 506.253906 452.824219 508.183594 454.132812 508.996094 456.148438 L 536.84375 525.777344 C 537.785156 528.132812 536.785156 530.011719 536.308594 530.710938 Z M 536.308594 530.710938 " fill-opacity="1" fill-rule="nonzero"/><path fill="#000000" d="M 405.757812 488.464844 L 345.75 488.464844 C 343.847656 488.464844 342.207031 489.820312 341.851562 491.691406 L 336.554688 519.488281 C 336.332031 520.648438 336.644531 521.851562 337.398438 522.765625 C 338.152344 523.675781 339.273438 524.203125 340.457031 524.203125 L 411.050781 524.203125 C 412.234375 524.203125 413.359375 523.675781 414.113281 522.765625 C 414.867188 521.851562 415.171875 520.648438 414.949219 519.488281 L 409.65625 491.691406 C 409.296875 489.820312 407.664062 488.464844 405.757812 488.464844 Z M 345.253906 516.261719 L 349.039062 496.40625 L 402.46875 496.40625 L 406.253906 516.261719 Z M 345.253906 516.261719 " fill-opacity="1" fill-rule="nonzero"/><path fill="#000000" d="M 440.210938 305.335938 C 435.277344 300.015625 428.570312 297.019531 421.3125 296.800781 C 414.160156 296.578125 407.234375 299.183594 401.96875 304.113281 C 396.703125 309.101562 393.65625 315.753906 393.433594 323.015625 C 393.378906 326.671875 392.601562 330.273438 391.269531 333.710938 C 390.71875 335.207031 389.664062 337.09375 388.777344 338.644531 C 387.78125 340.195312 386.617188 341.96875 385.175781 343.464844 C 380.074219 349.507812 372.371094 353.773438 364.167969 355.160156 C 355.191406 356.601562 345.714844 354.828125 338.121094 350.339844 C 335.679688 348.953125 333.351562 347.289062 331.191406 345.351562 C 329.640625 345.515625 328.03125 345.570312 326.371094 345.628906 L 325.316406 345.683594 C 322.988281 345.683594 318.058594 345.460938 312.402344 343.910156 C 317.226562 351.503906 323.765625 357.710938 331.359375 362.03125 C 341.554688 367.964844 354.25 370.347656 366.332031 368.460938 C 377.804688 366.523438 388.167969 360.757812 395.261719 352.445312 C 397.3125 350.226562 398.808594 347.898438 400.25 345.628906 C 401.523438 343.464844 402.910156 340.972656 403.796875 338.535156 C 405.679688 333.710938 406.734375 328.667969 406.902344 323.402344 C 407.011719 319.800781 408.507812 316.417969 411.167969 313.925781 C 413.828125 311.488281 417.265625 310.15625 420.921875 310.265625 C 424.582031 310.324219 427.90625 311.875 430.457031 314.535156 C 432.894531 317.195312 434.222656 320.632812 434.113281 324.289062 C 434.058594 325.121094 434.003906 325.953125 433.78125 326.671875 L 433.558594 328.058594 C 431.730469 336.09375 428.683594 343.523438 424.359375 350.28125 C 422.140625 353.941406 419.59375 356.933594 417.320312 359.539062 C 414.273438 362.976562 411.554688 365.523438 408.730469 367.628906 C 397.089844 377.054688 381.792969 382.375 366.828125 382.152344 C 351.976562 381.875 337.898438 376.777344 327.089844 367.6875 C 319.109375 361.089844 313.070312 352.609375 309.578125 343.023438 C 304.589844 341.195312 299.433594 338.367188 295.332031 333.601562 C 294.5 332.714844 293.835938 331.714844 293.335938 330.664062 C 292.949219 332.382812 293.003906 334.210938 293.335938 335.929688 C 296.609375 352.390625 305.53125 367.355469 318.5 377.996094 C 331.523438 389.023438 348.652344 395.285156 366.609375 395.621094 L 367.660156 395.621094 C 385.617188 395.621094 403.132812 389.46875 417.097656 378.21875 C 420.425781 375.667969 423.640625 372.675781 427.40625 368.519531 C 430.011719 365.523438 433.0625 361.867188 435.777344 357.488281 C 440.875 349.453125 444.53125 340.527344 446.640625 330.996094 L 446.972656 329.609375 C 447.304688 328.003906 447.527344 326.339844 447.582031 324.675781 C 447.804688 317.417969 445.199219 310.601562 440.210938 305.335938 Z M 440.210938 305.335938 " fill-opacity="1" fill-rule="nonzero"/><path fill="#000000" d="M 453.210938 198.546875 C 446.628906 192.445312 436.308594 192.824219 430.199219 199.414062 L 349.292969 286.648438 C 327.609375 287.035156 316.253906 303.546875 312.945312 313.324219 C 312.300781 314.316406 310.808594 316.007812 307.308594 316.007812 C 307.273438 316.007812 307.238281 316.007812 307.203125 316.007812 C 304.222656 316.089844 301.714844 317.640625 300.503906 320.246094 C 299.289062 322.871094 299.71875 325.980469 301.601562 328.167969 C 308.972656 336.714844 321.703125 337.355469 325.320312 337.355469 C 325.71875 337.355469 326.007812 337.347656 326.164062 337.34375 C 339.371094 337.046875 349.71875 333.035156 356.929688 325.410156 C 364.53125 317.367188 366.375 307.523438 366.8125 302.5625 L 453.214844 222.425781 C 453.503906 222.160156 453.808594 221.855469 454.082031 221.5625 C 457.039062 218.375 458.582031 214.222656 458.414062 209.875 C 458.25 205.527344 456.40625 201.503906 453.210938 198.546875 Z M 325.839844 325.683594 C 324.242188 325.742188 321.015625 325.535156 317.785156 324.652344 C 320.050781 323.148438 321.949219 321.117188 323.363281 318.621094 L 323.859375 317.472656 C 324.097656 316.707031 329.378906 300.402344 346.757812 298.507812 C 347.273438 300.046875 348.078125 301.507812 349.238281 302.761719 C 350.675781 304.308594 352.476562 305.375 354.445312 305.976562 C 353.601562 309.429688 351.910156 313.742188 348.453125 317.398438 C 343.464844 322.671875 335.878906 325.460938 325.839844 325.683594 Z M 445.285156 213.878906 L 361 291.675781 L 360.746094 291.449219 L 438.75 207.34375 C 439.664062 206.363281 440.898438 205.867188 442.140625 205.867188 C 443.265625 205.867188 444.398438 206.273438 445.285156 207.097656 C 446.1875 207.9375 446.710938 209.082031 446.757812 210.316406 C 446.808594 211.550781 446.371094 212.726562 445.285156 213.878906 Z M 445.285156 213.878906 " fill-opacity="1" fill-rule="nonzero"/></svg>