<svg xmlns="http://www.w3.org/2000/svg" xmlns:xlink="http://www.w3.org/1999/xlink" width="1080" zoomAndPan="magnify" viewBox="0 0 810 809.999993" height="1080" preserveAspectRatio="xMidYMid meet" version="1.0"><defs><g/></defs><path fill="#ffffff" d="M 173.664062 375.523438 L 160.4375 388.113281 C 159.230469 389.765625 159.304688 391.988281 160.683594 393.527344 L 172.777344 403.921875 L 172.746094 403.921875 L 185.730469 416.371094 C 187.210938 418.097656 187.210938 420.582031 185.574219 422.21875 L 150.527344 455.609375 L 166.496094 470.953125 L 214.039062 425.675781 C 217.675781 422.195312 217.6875 416.558594 214.039062 413.0625 L 214.046875 413.078125 L 204.34375 403.785156 Z M 173.664062 375.523438 " fill-opacity="1" fill-rule="nonzero"/><path fill="#ffffff" d="M 109.574219 384.324219 C 105.929688 387.800781 105.929688 393.445312 109.574219 396.9375 L 109.554688 396.9375 L 119.265625 406.214844 L 149.960938 434.46875 L 163.121094 421.878906 C 164.273438 420.246094 164.1875 418.003906 162.867188 416.464844 L 150.78125 406.011719 L 150.835938 405.984375 L 137.835938 393.527344 C 136.308594 391.804688 136.359375 389.242188 137.953125 387.597656 L 172.992188 354.203125 L 157.125 339.042969 Z M 109.574219 384.324219 " fill-opacity="1" fill-rule="nonzero"/><g fill="#fefefe" fill-opacity="1"><g transform="translate(235.846295, 410.737224)"><g><path d="M 50.671875 -68.546875 L 50.671875 -55.171875 L 22.75 -55.171875 L 22.75 -40.71875 L 43.640625 -40.71875 L 43.640625 -27.734375 L 22.75 -27.734375 L 22.75 0 L 6.046875 0 L 6.046875 -68.546875 Z M 50.671875 -68.546875 "/></g></g></g><g fill="#fefefe" fill-opacity="1"><g transform="translate(289.254423, 410.737224)"><g><path d="M 22.75 -72.25 L 22.75 0 L 6.046875 0 L 6.046875 -72.25 Z M 22.75 -72.25 "/></g></g></g><g fill="#fefefe" fill-opacity="1"><g transform="translate(318.057707, 410.737224)"><g><path d="M 30.859375 0.78125 C 25.515625 0.78125 20.710938 -0.351562 16.453125 -2.625 C 12.191406 -4.90625 8.835938 -8.160156 6.390625 -12.390625 C 3.953125 -16.628906 2.734375 -21.578125 2.734375 -27.234375 C 2.734375 -32.835938 3.96875 -37.769531 6.4375 -42.03125 C 8.914062 -46.300781 12.300781 -49.570312 16.59375 -51.84375 C 20.894531 -54.125 25.710938 -55.265625 31.046875 -55.265625 C 36.390625 -55.265625 41.207031 -54.125 45.5 -51.84375 C 49.789062 -49.570312 53.171875 -46.300781 55.640625 -42.03125 C 58.117188 -37.769531 59.359375 -32.835938 59.359375 -27.234375 C 59.359375 -21.640625 58.101562 -16.707031 55.59375 -12.4375 C 53.09375 -8.175781 49.675781 -4.90625 45.34375 -2.625 C 41.019531 -0.351562 36.191406 0.78125 30.859375 0.78125 Z M 30.859375 -13.671875 C 34.046875 -13.671875 36.757812 -14.84375 39 -17.1875 C 41.25 -19.53125 42.375 -22.878906 42.375 -27.234375 C 42.375 -31.597656 41.28125 -34.953125 39.09375 -37.296875 C 36.914062 -39.640625 34.234375 -40.8125 31.046875 -40.8125 C 27.796875 -40.8125 25.09375 -39.65625 22.9375 -37.34375 C 20.789062 -35.03125 19.71875 -31.660156 19.71875 -27.234375 C 19.71875 -22.878906 20.773438 -19.53125 22.890625 -17.1875 C 25.003906 -14.84375 27.660156 -13.671875 30.859375 -13.671875 Z M 30.859375 -13.671875 "/></g></g></g><g fill="#fefefe" fill-opacity="1"><g transform="translate(380.253277, 410.737224)"><g><path d="M 84.265625 -54.484375 L 69.515625 0 L 51.0625 0 L 42.46875 -35.34375 L 33.59375 0 L 15.234375 0 L 0.390625 -54.484375 L 17.09375 -54.484375 L 24.796875 -15.53125 L 33.984375 -54.484375 L 51.65625 -54.484375 L 60.921875 -15.71875 L 68.546875 -54.484375 Z M 84.265625 -54.484375 "/></g></g></g><g fill="#fefefe" fill-opacity="1"><g transform="translate(464.808006, 410.737224)"><g/></g></g><g fill="#fefefe" fill-opacity="1"><g transform="translate(485.507318, 410.737224)"><g><path d="M 84.265625 -54.484375 L 69.515625 0 L 51.0625 0 L 42.46875 -35.34375 L 33.59375 0 L 15.234375 0 L 0.390625 -54.484375 L 17.09375 -54.484375 L 24.796875 -15.53125 L 33.984375 -54.484375 L 51.65625 -54.484375 L 60.921875 -15.71875 L 68.546875 -54.484375 Z M 84.265625 -54.484375 "/></g></g></g><g fill="#fefefe" fill-opacity="1"><g transform="translate(570.062059, 410.737224)"><g><path d="M 57.40625 -28.125 C 57.40625 -26.5625 57.3125 -24.929688 57.125 -23.234375 L 19.328125 -23.234375 C 19.585938 -19.847656 20.675781 -17.257812 22.59375 -15.46875 C 24.519531 -13.6875 26.882812 -12.796875 29.6875 -12.796875 C 33.851562 -12.796875 36.75 -14.550781 38.375 -18.0625 L 56.140625 -18.0625 C 55.234375 -14.476562 53.59375 -11.253906 51.21875 -8.390625 C 48.84375 -5.523438 45.863281 -3.28125 42.28125 -1.65625 C 38.695312 -0.03125 34.691406 0.78125 30.265625 0.78125 C 24.929688 0.78125 20.179688 -0.351562 16.015625 -2.625 C 11.847656 -4.90625 8.59375 -8.160156 6.25 -12.390625 C 3.90625 -16.628906 2.734375 -21.578125 2.734375 -27.234375 C 2.734375 -32.898438 3.890625 -37.847656 6.203125 -42.078125 C 8.515625 -46.316406 11.753906 -49.570312 15.921875 -51.84375 C 20.085938 -54.125 24.867188 -55.265625 30.265625 -55.265625 C 35.535156 -55.265625 40.222656 -54.15625 44.328125 -51.9375 C 48.429688 -49.726562 51.632812 -46.570312 53.9375 -42.46875 C 56.25 -38.375 57.40625 -33.59375 57.40625 -28.125 Z M 40.328125 -32.515625 C 40.328125 -35.378906 39.347656 -37.65625 37.390625 -39.34375 C 35.441406 -41.039062 33.003906 -41.890625 30.078125 -41.890625 C 27.273438 -41.890625 24.910156 -41.070312 22.984375 -39.4375 C 21.066406 -37.8125 19.882812 -35.503906 19.4375 -32.515625 Z M 40.328125 -32.515625 "/></g></g></g><g fill="#fefefe" fill-opacity="1"><g transform="translate(630.207218, 410.737224)"><g><path d="M 22.75 -46.765625 C 24.3125 -49.304688 26.554688 -51.359375 29.484375 -52.921875 C 32.410156 -54.484375 35.765625 -55.265625 39.546875 -55.265625 C 44.035156 -55.265625 48.101562 -54.125 51.75 -51.84375 C 55.394531 -49.570312 58.273438 -46.316406 60.390625 -42.078125 C 62.503906 -37.847656 63.5625 -32.9375 63.5625 -27.34375 C 63.5625 -21.738281 62.503906 -16.804688 60.390625 -12.546875 C 58.273438 -8.285156 55.394531 -5 51.75 -2.6875 C 48.101562 -0.375 44.035156 0.78125 39.546875 0.78125 C 35.703125 0.78125 32.347656 0.015625 29.484375 -1.515625 C 26.617188 -3.046875 24.375 -5.078125 22.75 -7.609375 L 22.75 0 L 6.046875 0 L 6.046875 -72.25 L 22.75 -72.25 Z M 46.578125 -27.34375 C 46.578125 -31.507812 45.421875 -34.78125 43.109375 -37.15625 C 40.796875 -39.53125 37.945312 -40.71875 34.5625 -40.71875 C 31.238281 -40.71875 28.421875 -39.507812 26.109375 -37.09375 C 23.804688 -34.6875 22.65625 -31.398438 22.65625 -27.234375 C 22.65625 -23.078125 23.804688 -19.789062 26.109375 -17.375 C 28.421875 -14.96875 31.238281 -13.765625 34.5625 -13.765625 C 37.882812 -13.765625 40.71875 -14.984375 43.0625 -17.421875 C 45.40625 -19.867188 46.578125 -23.175781 46.578125 -27.34375 Z M 46.578125 -27.34375 "/></g></g></g><g fill="#fefefe" fill-opacity="1"><g transform="translate(235.920623, 468.741594)"><g><path d="M 10.734375 -25.46875 C 13.515625 -25.46875 15.921875 -24.945312 17.953125 -23.90625 C 19.984375 -22.875 21.539062 -21.394531 22.625 -19.46875 C 23.707031 -17.539062 24.25 -15.273438 24.25 -12.671875 C 24.25 -10.066406 23.707031 -7.804688 22.625 -5.890625 C 21.539062 -3.984375 19.984375 -2.523438 17.953125 -1.515625 C 15.921875 -0.503906 13.515625 0 10.734375 0 L 2.8125 0 L 2.8125 -25.46875 Z M 10.734375 -2.734375 C 14.023438 -2.734375 16.535156 -3.601562 18.265625 -5.34375 C 19.992188 -7.09375 20.859375 -9.535156 20.859375 -12.671875 C 20.859375 -15.835938 19.988281 -18.3125 18.25 -20.09375 C 16.507812 -21.875 14.003906 -22.765625 10.734375 -22.765625 L 6.140625 -22.765625 L 6.140625 -2.734375 Z M 10.734375 -2.734375 "/></g></g></g><g fill="#fefefe" fill-opacity="1"><g transform="translate(261.733242, 468.741594)"><g><path d="M 4.53125 -23.265625 C 3.894531 -23.265625 3.359375 -23.484375 2.921875 -23.921875 C 2.484375 -24.359375 2.265625 -24.894531 2.265625 -25.53125 C 2.265625 -26.164062 2.484375 -26.703125 2.921875 -27.140625 C 3.359375 -27.578125 3.894531 -27.796875 4.53125 -27.796875 C 5.132812 -27.796875 5.648438 -27.578125 6.078125 -27.140625 C 6.503906 -26.703125 6.71875 -26.164062 6.71875 -25.53125 C 6.71875 -24.894531 6.503906 -24.359375 6.078125 -23.921875 C 5.648438 -23.484375 5.132812 -23.265625 4.53125 -23.265625 Z M 6.140625 -20.015625 L 6.140625 0 L 2.8125 0 L 2.8125 -20.015625 Z M 6.140625 -20.015625 "/></g></g></g><g fill="#fefefe" fill-opacity="1"><g transform="translate(270.714724, 468.741594)"><g><path d="M 9.90625 0.328125 C 8.363281 0.328125 6.984375 0.0664062 5.765625 -0.453125 C 4.554688 -0.972656 3.597656 -1.703125 2.890625 -2.640625 C 2.179688 -3.585938 1.789062 -4.664062 1.71875 -5.875 L 5.15625 -5.875 C 5.25 -4.882812 5.710938 -4.070312 6.546875 -3.4375 C 7.390625 -2.800781 8.492188 -2.484375 9.859375 -2.484375 C 11.128906 -2.484375 12.128906 -2.765625 12.859375 -3.328125 C 13.585938 -3.890625 13.953125 -4.59375 13.953125 -5.4375 C 13.953125 -6.320312 13.5625 -6.972656 12.78125 -7.390625 C 12 -7.816406 10.796875 -8.238281 9.171875 -8.65625 C 7.679688 -9.050781 6.46875 -9.445312 5.53125 -9.84375 C 4.59375 -10.25 3.789062 -10.847656 3.125 -11.640625 C 2.457031 -12.429688 2.125 -13.472656 2.125 -14.765625 C 2.125 -15.785156 2.425781 -16.71875 3.03125 -17.5625 C 3.644531 -18.414062 4.507812 -19.09375 5.625 -19.59375 C 6.75 -20.09375 8.03125 -20.34375 9.46875 -20.34375 C 11.675781 -20.34375 13.460938 -19.78125 14.828125 -18.65625 C 16.191406 -17.539062 16.925781 -16.007812 17.03125 -14.0625 L 13.703125 -14.0625 C 13.628906 -15.113281 13.207031 -15.953125 12.4375 -16.578125 C 11.664062 -17.210938 10.640625 -17.53125 9.359375 -17.53125 C 8.160156 -17.53125 7.207031 -17.273438 6.5 -16.765625 C 5.789062 -16.253906 5.4375 -15.585938 5.4375 -14.765625 C 5.4375 -14.097656 5.648438 -13.550781 6.078125 -13.125 C 6.503906 -12.707031 7.039062 -12.367188 7.6875 -12.109375 C 8.332031 -11.847656 9.226562 -11.5625 10.375 -11.25 C 11.8125 -10.863281 12.976562 -10.476562 13.875 -10.09375 C 14.78125 -9.71875 15.554688 -9.148438 16.203125 -8.390625 C 16.847656 -7.640625 17.179688 -6.65625 17.203125 -5.4375 C 17.203125 -4.34375 16.894531 -3.359375 16.28125 -2.484375 C 15.675781 -1.609375 14.820312 -0.921875 13.71875 -0.421875 C 12.613281 0.078125 11.34375 0.328125 9.90625 0.328125 Z M 9.90625 0.328125 "/></g></g></g><g fill="#fefefe" fill-opacity="1"><g transform="translate(289.772973, 468.741594)"><g><path d="M 21.078125 -10.78125 C 21.078125 -10.144531 21.039062 -9.472656 20.96875 -8.765625 L 4.96875 -8.765625 C 5.09375 -6.796875 5.769531 -5.253906 7 -4.140625 C 8.226562 -3.035156 9.71875 -2.484375 11.46875 -2.484375 C 12.90625 -2.484375 14.101562 -2.816406 15.0625 -3.484375 C 16.03125 -4.160156 16.707031 -5.054688 17.09375 -6.171875 L 20.671875 -6.171875 C 20.140625 -4.242188 19.066406 -2.675781 17.453125 -1.46875 C 15.847656 -0.269531 13.851562 0.328125 11.46875 0.328125 C 9.570312 0.328125 7.875 -0.0976562 6.375 -0.953125 C 4.875 -1.804688 3.695312 -3.015625 2.84375 -4.578125 C 2 -6.148438 1.578125 -7.972656 1.578125 -10.046875 C 1.578125 -12.117188 1.988281 -13.929688 2.8125 -15.484375 C 3.644531 -17.046875 4.804688 -18.242188 6.296875 -19.078125 C 7.796875 -19.921875 9.519531 -20.34375 11.46875 -20.34375 C 13.363281 -20.34375 15.039062 -19.925781 16.5 -19.09375 C 17.96875 -18.269531 19.097656 -17.132812 19.890625 -15.6875 C 20.679688 -14.238281 21.078125 -12.601562 21.078125 -10.78125 Z M 17.640625 -11.46875 C 17.640625 -12.738281 17.359375 -13.828125 16.796875 -14.734375 C 16.242188 -15.648438 15.484375 -16.34375 14.515625 -16.8125 C 13.554688 -17.289062 12.492188 -17.53125 11.328125 -17.53125 C 9.640625 -17.53125 8.207031 -16.992188 7.03125 -15.921875 C 5.851562 -14.847656 5.175781 -13.363281 5 -11.46875 Z M 17.640625 -11.46875 "/></g></g></g><g fill="#fefefe" fill-opacity="1"><g transform="translate(312.40921, 468.741594)"><g><path d="M 12.5625 -20.390625 C 15 -20.390625 16.972656 -19.648438 18.484375 -18.171875 C 19.992188 -16.703125 20.75 -14.578125 20.75 -11.796875 L 20.75 0 L 17.46875 0 L 17.46875 -11.328125 C 17.46875 -13.316406 16.96875 -14.84375 15.96875 -15.90625 C 14.96875 -16.96875 13.601562 -17.5 11.875 -17.5 C 10.125 -17.5 8.726562 -16.945312 7.6875 -15.84375 C 6.65625 -14.75 6.140625 -13.15625 6.140625 -11.0625 L 6.140625 0 L 2.8125 0 L 2.8125 -20.015625 L 6.140625 -20.015625 L 6.140625 -17.171875 C 6.796875 -18.191406 7.6875 -18.984375 8.8125 -19.546875 C 9.945312 -20.109375 11.195312 -20.390625 12.5625 -20.390625 Z M 6.390625 -22.171875 C 6.554688 -23.410156 6.960938 -24.359375 7.609375 -25.015625 C 8.253906 -25.679688 9.066406 -26.015625 10.046875 -26.015625 C 10.503906 -26.015625 10.894531 -25.929688 11.21875 -25.765625 C 11.550781 -25.609375 11.953125 -25.382812 12.421875 -25.09375 C 12.753906 -24.851562 13.054688 -24.664062 13.328125 -24.53125 C 13.597656 -24.394531 13.890625 -24.328125 14.203125 -24.328125 C 14.617188 -24.328125 14.972656 -24.460938 15.265625 -24.734375 C 15.554688 -25.003906 15.738281 -25.394531 15.8125 -25.90625 L 17.71875 -25.90625 C 17.5625 -24.6875 17.15625 -23.742188 16.5 -23.078125 C 15.84375 -22.421875 15.03125 -22.09375 14.0625 -22.09375 C 13.59375 -22.09375 13.179688 -22.171875 12.828125 -22.328125 C 12.484375 -22.492188 12.085938 -22.734375 11.640625 -23.046875 C 11.253906 -23.296875 10.945312 -23.476562 10.71875 -23.59375 C 10.488281 -23.71875 10.210938 -23.78125 9.890625 -23.78125 C 9.472656 -23.78125 9.125 -23.644531 8.84375 -23.375 C 8.570312 -23.113281 8.398438 -22.710938 8.328125 -22.171875 Z M 6.390625 -22.171875 "/></g></g></g><g fill="#fefefe" fill-opacity="1"><g transform="translate(335.775652, 468.741594)"><g><path d="M 11.546875 0.328125 C 9.671875 0.328125 7.972656 -0.0976562 6.453125 -0.953125 C 4.929688 -1.804688 3.738281 -3.015625 2.875 -4.578125 C 2.007812 -6.148438 1.578125 -7.972656 1.578125 -10.046875 C 1.578125 -12.085938 2.019531 -13.894531 2.90625 -15.46875 C 3.789062 -17.039062 5 -18.242188 6.53125 -19.078125 C 8.070312 -19.921875 9.789062 -20.34375 11.6875 -20.34375 C 13.59375 -20.34375 15.3125 -19.921875 16.84375 -19.078125 C 18.375 -18.242188 19.582031 -17.046875 20.46875 -15.484375 C 21.363281 -13.929688 21.8125 -12.117188 21.8125 -10.046875 C 21.8125 -7.972656 21.351562 -6.148438 20.4375 -4.578125 C 19.519531 -3.015625 18.28125 -1.804688 16.71875 -0.953125 C 15.164062 -0.0976562 13.441406 0.328125 11.546875 0.328125 Z M 11.546875 -2.59375 C 12.734375 -2.59375 13.847656 -2.875 14.890625 -3.4375 C 15.941406 -4 16.789062 -4.835938 17.4375 -5.953125 C 18.082031 -7.078125 18.40625 -8.441406 18.40625 -10.046875 C 18.40625 -11.648438 18.085938 -13.007812 17.453125 -14.125 C 16.828125 -15.25 16 -16.085938 14.96875 -16.640625 C 13.945312 -17.191406 12.84375 -17.46875 11.65625 -17.46875 C 10.4375 -17.46875 9.320312 -17.191406 8.3125 -16.640625 C 7.300781 -16.085938 6.488281 -15.25 5.875 -14.125 C 5.269531 -13.007812 4.96875 -11.648438 4.96875 -10.046875 C 4.96875 -8.410156 5.265625 -7.03125 5.859375 -5.90625 C 6.460938 -4.789062 7.257812 -3.957031 8.25 -3.40625 C 9.25 -2.863281 10.347656 -2.59375 11.546875 -2.59375 Z M 11.546875 -2.59375 "/></g></g></g><g fill="#fefefe" fill-opacity="1"><g transform="translate(359.142094, 468.741594)"><g/></g></g><g fill="#fefefe" fill-opacity="1"><g transform="translate(368.890277, 468.741594)"><g><path d="M 20.0625 -20.015625 L 8 9.421875 L 4.5625 9.421875 L 8.515625 -0.21875 L 0.4375 -20.015625 L 4.125 -20.015625 L 10.40625 -3.796875 L 16.625 -20.015625 Z M 20.0625 -20.015625 "/></g></g></g><g fill="#fefefe" fill-opacity="1"><g transform="translate(389.445446, 468.741594)"><g/></g></g><g fill="#fefefe" fill-opacity="1"><g transform="translate(399.193629, 468.741594)"><g><path d="M 1.578125 -10.078125 C 1.578125 -12.128906 1.988281 -13.925781 2.8125 -15.46875 C 3.644531 -17.019531 4.785156 -18.21875 6.234375 -19.0625 C 7.679688 -19.914062 9.304688 -20.34375 11.109375 -20.34375 C 12.660156 -20.34375 14.109375 -19.984375 15.453125 -19.265625 C 16.796875 -18.546875 17.816406 -17.601562 18.515625 -16.4375 L 18.515625 -27.03125 L 21.875 -27.03125 L 21.875 0 L 18.515625 0 L 18.515625 -3.765625 C 17.859375 -2.566406 16.882812 -1.582031 15.59375 -0.8125 C 14.300781 -0.0507812 12.789062 0.328125 11.0625 0.328125 C 9.289062 0.328125 7.679688 -0.109375 6.234375 -0.984375 C 4.785156 -1.859375 3.644531 -3.085938 2.8125 -4.671875 C 1.988281 -6.253906 1.578125 -8.054688 1.578125 -10.078125 Z M 18.515625 -10.046875 C 18.515625 -11.554688 18.207031 -12.867188 17.59375 -13.984375 C 16.988281 -15.109375 16.171875 -15.96875 15.140625 -16.5625 C 14.109375 -17.164062 12.96875 -17.46875 11.71875 -17.46875 C 10.476562 -17.46875 9.347656 -17.171875 8.328125 -16.578125 C 7.304688 -15.992188 6.488281 -15.140625 5.875 -14.015625 C 5.269531 -12.898438 4.96875 -11.585938 4.96875 -10.078125 C 4.96875 -8.546875 5.269531 -7.210938 5.875 -6.078125 C 6.488281 -4.953125 7.304688 -4.085938 8.328125 -3.484375 C 9.347656 -2.890625 10.476562 -2.59375 11.71875 -2.59375 C 12.96875 -2.59375 14.109375 -2.890625 15.140625 -3.484375 C 16.171875 -4.085938 16.988281 -4.953125 17.59375 -6.078125 C 18.207031 -7.210938 18.515625 -8.535156 18.515625 -10.046875 Z M 18.515625 -10.046875 "/></g></g></g><g fill="#fefefe" fill-opacity="1"><g transform="translate(423.874437, 468.741594)"><g><path d="M 21.078125 -10.78125 C 21.078125 -10.144531 21.039062 -9.472656 20.96875 -8.765625 L 4.96875 -8.765625 C 5.09375 -6.796875 5.769531 -5.253906 7 -4.140625 C 8.226562 -3.035156 9.71875 -2.484375 11.46875 -2.484375 C 12.90625 -2.484375 14.101562 -2.816406 15.0625 -3.484375 C 16.03125 -4.160156 16.707031 -5.054688 17.09375 -6.171875 L 20.671875 -6.171875 C 20.140625 -4.242188 19.066406 -2.675781 17.453125 -1.46875 C 15.847656 -0.269531 13.851562 0.328125 11.46875 0.328125 C 9.570312 0.328125 7.875 -0.0976562 6.375 -0.953125 C 4.875 -1.804688 3.695312 -3.015625 2.84375 -4.578125 C 2 -6.148438 1.578125 -7.972656 1.578125 -10.046875 C 1.578125 -12.117188 1.988281 -13.929688 2.8125 -15.484375 C 3.644531 -17.046875 4.804688 -18.242188 6.296875 -19.078125 C 7.796875 -19.921875 9.519531 -20.34375 11.46875 -20.34375 C 13.363281 -20.34375 15.039062 -19.925781 16.5 -19.09375 C 17.96875 -18.269531 19.097656 -17.132812 19.890625 -15.6875 C 20.679688 -14.238281 21.078125 -12.601562 21.078125 -10.78125 Z M 17.640625 -11.46875 C 17.640625 -12.738281 17.359375 -13.828125 16.796875 -14.734375 C 16.242188 -15.648438 15.484375 -16.34375 14.515625 -16.8125 C 13.554688 -17.289062 12.492188 -17.53125 11.328125 -17.53125 C 9.640625 -17.53125 8.207031 -16.992188 7.03125 -15.921875 C 5.851562 -14.847656 5.175781 -13.363281 5 -11.46875 Z M 17.640625 -11.46875 "/></g></g></g><g fill="#fefefe" fill-opacity="1"><g transform="translate(446.510674, 468.741594)"><g><path d="M 9.90625 0.328125 C 8.363281 0.328125 6.984375 0.0664062 5.765625 -0.453125 C 4.554688 -0.972656 3.597656 -1.703125 2.890625 -2.640625 C 2.179688 -3.585938 1.789062 -4.664062 1.71875 -5.875 L 5.15625 -5.875 C 5.25 -4.882812 5.710938 -4.070312 6.546875 -3.4375 C 7.390625 -2.800781 8.492188 -2.484375 9.859375 -2.484375 C 11.128906 -2.484375 12.128906 -2.765625 12.859375 -3.328125 C 13.585938 -3.890625 13.953125 -4.59375 13.953125 -5.4375 C 13.953125 -6.320312 13.5625 -6.972656 12.78125 -7.390625 C 12 -7.816406 10.796875 -8.238281 9.171875 -8.65625 C 7.679688 -9.050781 6.46875 -9.445312 5.53125 -9.84375 C 4.59375 -10.25 3.789062 -10.847656 3.125 -11.640625 C 2.457031 -12.429688 2.125 -13.472656 2.125 -14.765625 C 2.125 -15.785156 2.425781 -16.71875 3.03125 -17.5625 C 3.644531 -18.414062 4.507812 -19.09375 5.625 -19.59375 C 6.75 -20.09375 8.03125 -20.34375 9.46875 -20.34375 C 11.675781 -20.34375 13.460938 -19.78125 14.828125 -18.65625 C 16.191406 -17.539062 16.925781 -16.007812 17.03125 -14.0625 L 13.703125 -14.0625 C 13.628906 -15.113281 13.207031 -15.953125 12.4375 -16.578125 C 11.664062 -17.210938 10.640625 -17.53125 9.359375 -17.53125 C 8.160156 -17.53125 7.207031 -17.273438 6.5 -16.765625 C 5.789062 -16.253906 5.4375 -15.585938 5.4375 -14.765625 C 5.4375 -14.097656 5.648438 -13.550781 6.078125 -13.125 C 6.503906 -12.707031 7.039062 -12.367188 7.6875 -12.109375 C 8.332031 -11.847656 9.226562 -11.5625 10.375 -11.25 C 11.8125 -10.863281 12.976562 -10.476562 13.875 -10.09375 C 14.78125 -9.71875 15.554688 -9.148438 16.203125 -8.390625 C 16.847656 -7.640625 17.179688 -6.65625 17.203125 -5.4375 C 17.203125 -4.34375 16.894531 -3.359375 16.28125 -2.484375 C 15.675781 -1.609375 14.820312 -0.921875 13.71875 -0.421875 C 12.613281 0.078125 11.34375 0.328125 9.90625 0.328125 Z M 9.90625 0.328125 "/></g></g></g><g fill="#fefefe" fill-opacity="1"><g transform="translate(465.568923, 468.741594)"><g><path d="M 1.578125 -10.078125 C 1.578125 -12.128906 1.988281 -13.925781 2.8125 -15.46875 C 3.644531 -17.019531 4.785156 -18.21875 6.234375 -19.0625 C 7.679688 -19.914062 9.289062 -20.34375 11.0625 -20.34375 C 12.820312 -20.34375 14.347656 -19.960938 15.640625 -19.203125 C 16.929688 -18.453125 17.890625 -17.503906 18.515625 -16.359375 L 18.515625 -20.015625 L 21.875 -20.015625 L 21.875 0 L 18.515625 0 L 18.515625 -3.71875 C 17.859375 -2.550781 16.878906 -1.582031 15.578125 -0.8125 C 14.273438 -0.0507812 12.757812 0.328125 11.03125 0.328125 C 9.25 0.328125 7.640625 -0.109375 6.203125 -0.984375 C 4.773438 -1.859375 3.644531 -3.085938 2.8125 -4.671875 C 1.988281 -6.253906 1.578125 -8.054688 1.578125 -10.078125 Z M 18.515625 -10.046875 C 18.515625 -11.554688 18.207031 -12.867188 17.59375 -13.984375 C 16.988281 -15.109375 16.171875 -15.96875 15.140625 -16.5625 C 14.109375 -17.164062 12.96875 -17.46875 11.71875 -17.46875 C 10.476562 -17.46875 9.347656 -17.171875 8.328125 -16.578125 C 7.304688 -15.992188 6.488281 -15.140625 5.875 -14.015625 C 5.269531 -12.898438 4.96875 -11.585938 4.96875 -10.078125 C 4.96875 -8.546875 5.269531 -7.210938 5.875 -6.078125 C 6.488281 -4.953125 7.304688 -4.085938 8.328125 -3.484375 C 9.347656 -2.890625 10.476562 -2.59375 11.71875 -2.59375 C 12.96875 -2.59375 14.109375 -2.890625 15.140625 -3.484375 C 16.171875 -4.085938 16.988281 -4.953125 17.59375 -6.078125 C 18.207031 -7.210938 18.515625 -8.535156 18.515625 -10.046875 Z M 18.515625 -10.046875 "/></g></g></g><g fill="#fefefe" fill-opacity="1"><g transform="translate(490.249731, 468.741594)"><g><path d="M 6.140625 -16.765625 C 6.722656 -17.910156 7.554688 -18.800781 8.640625 -19.4375 C 9.722656 -20.070312 11.046875 -20.390625 12.609375 -20.390625 L 12.609375 -16.953125 L 11.71875 -16.953125 C 8 -16.953125 6.140625 -14.929688 6.140625 -10.890625 L 6.140625 0 L 2.8125 0 L 2.8125 -20.015625 L 6.140625 -20.015625 Z M 6.140625 -16.765625 "/></g></g></g><g fill="#fefefe" fill-opacity="1"><g transform="translate(503.86799, 468.741594)"><g><path d="M 6.140625 -16.765625 C 6.722656 -17.910156 7.554688 -18.800781 8.640625 -19.4375 C 9.722656 -20.070312 11.046875 -20.390625 12.609375 -20.390625 L 12.609375 -16.953125 L 11.71875 -16.953125 C 8 -16.953125 6.140625 -14.929688 6.140625 -10.890625 L 6.140625 0 L 2.8125 0 L 2.8125 -20.015625 L 6.140625 -20.015625 Z M 6.140625 -16.765625 "/></g></g></g><g fill="#fefefe" fill-opacity="1"><g transform="translate(517.486249, 468.741594)"><g><path d="M 11.546875 0.328125 C 9.671875 0.328125 7.972656 -0.0976562 6.453125 -0.953125 C 4.929688 -1.804688 3.738281 -3.015625 2.875 -4.578125 C 2.007812 -6.148438 1.578125 -7.972656 1.578125 -10.046875 C 1.578125 -12.085938 2.019531 -13.894531 2.90625 -15.46875 C 3.789062 -17.039062 5 -18.242188 6.53125 -19.078125 C 8.070312 -19.921875 9.789062 -20.34375 11.6875 -20.34375 C 13.59375 -20.34375 15.3125 -19.921875 16.84375 -19.078125 C 18.375 -18.242188 19.582031 -17.046875 20.46875 -15.484375 C 21.363281 -13.929688 21.8125 -12.117188 21.8125 -10.046875 C 21.8125 -7.972656 21.351562 -6.148438 20.4375 -4.578125 C 19.519531 -3.015625 18.28125 -1.804688 16.71875 -0.953125 C 15.164062 -0.0976562 13.441406 0.328125 11.546875 0.328125 Z M 11.546875 -2.59375 C 12.734375 -2.59375 13.847656 -2.875 14.890625 -3.4375 C 15.941406 -4 16.789062 -4.835938 17.4375 -5.953125 C 18.082031 -7.078125 18.40625 -8.441406 18.40625 -10.046875 C 18.40625 -11.648438 18.085938 -13.007812 17.453125 -14.125 C 16.828125 -15.25 16 -16.085938 14.96875 -16.640625 C 13.945312 -17.191406 12.84375 -17.46875 11.65625 -17.46875 C 10.4375 -17.46875 9.320312 -17.191406 8.3125 -16.640625 C 7.300781 -16.085938 6.488281 -15.25 5.875 -14.125 C 5.269531 -13.007812 4.96875 -11.648438 4.96875 -10.046875 C 4.96875 -8.410156 5.265625 -7.03125 5.859375 -5.90625 C 6.460938 -4.789062 7.257812 -3.957031 8.25 -3.40625 C 9.25 -2.863281 10.347656 -2.59375 11.546875 -2.59375 Z M 11.546875 -2.59375 "/></g></g></g><g fill="#fefefe" fill-opacity="1"><g transform="translate(540.852691, 468.741594)"><g><path d="M 6.140625 -27.03125 L 6.140625 0 L 2.8125 0 L 2.8125 -27.03125 Z M 6.140625 -27.03125 "/></g></g></g><g fill="#fefefe" fill-opacity="1"><g transform="translate(549.834158, 468.741594)"><g><path d="M 6.140625 -27.03125 L 6.140625 0 L 2.8125 0 L 2.8125 -27.03125 Z M 6.140625 -27.03125 "/></g></g></g><g fill="#fefefe" fill-opacity="1"><g transform="translate(558.815654, 468.741594)"><g><path d="M 11.546875 0.328125 C 9.671875 0.328125 7.972656 -0.0976562 6.453125 -0.953125 C 4.929688 -1.804688 3.738281 -3.015625 2.875 -4.578125 C 2.007812 -6.148438 1.578125 -7.972656 1.578125 -10.046875 C 1.578125 -12.085938 2.019531 -13.894531 2.90625 -15.46875 C 3.789062 -17.039062 5 -18.242188 6.53125 -19.078125 C 8.070312 -19.921875 9.789062 -20.34375 11.6875 -20.34375 C 13.59375 -20.34375 15.3125 -19.921875 16.84375 -19.078125 C 18.375 -18.242188 19.582031 -17.046875 20.46875 -15.484375 C 21.363281 -13.929688 21.8125 -12.117188 21.8125 -10.046875 C 21.8125 -7.972656 21.351562 -6.148438 20.4375 -4.578125 C 19.519531 -3.015625 18.28125 -1.804688 16.71875 -0.953125 C 15.164062 -0.0976562 13.441406 0.328125 11.546875 0.328125 Z M 11.546875 -2.59375 C 12.734375 -2.59375 13.847656 -2.875 14.890625 -3.4375 C 15.941406 -4 16.789062 -4.835938 17.4375 -5.953125 C 18.082031 -7.078125 18.40625 -8.441406 18.40625 -10.046875 C 18.40625 -11.648438 18.085938 -13.007812 17.453125 -14.125 C 16.828125 -15.25 16 -16.085938 14.96875 -16.640625 C 13.945312 -17.191406 12.84375 -17.46875 11.65625 -17.46875 C 10.4375 -17.46875 9.320312 -17.191406 8.3125 -16.640625 C 7.300781 -16.085938 6.488281 -15.25 5.875 -14.125 C 5.269531 -13.007812 4.96875 -11.648438 4.96875 -10.046875 C 4.96875 -8.410156 5.265625 -7.03125 5.859375 -5.90625 C 6.460938 -4.789062 7.257812 -3.957031 8.25 -3.40625 C 9.25 -2.863281 10.347656 -2.59375 11.546875 -2.59375 Z M 11.546875 -2.59375 "/></g></g></g><g fill="#fefefe" fill-opacity="1"><g transform="translate(582.182096, 468.741594)"><g/></g></g><g fill="#fefefe" fill-opacity="1"><g transform="translate(591.930279, 468.741594)"><g><path d="M 29.484375 -20.015625 L 23.234375 0 L 19.796875 0 L 14.984375 -15.890625 L 10.15625 0 L 6.71875 0 L 0.4375 -20.015625 L 3.828125 -20.015625 L 8.4375 -3.21875 L 13.40625 -20.015625 L 16.796875 -20.015625 L 21.65625 -3.171875 L 26.1875 -20.015625 Z M 29.484375 -20.015625 "/></g></g></g><g fill="#fefefe" fill-opacity="1"><g transform="translate(621.868522, 468.741594)"><g><path d="M 21.078125 -10.78125 C 21.078125 -10.144531 21.039062 -9.472656 20.96875 -8.765625 L 4.96875 -8.765625 C 5.09375 -6.796875 5.769531 -5.253906 7 -4.140625 C 8.226562 -3.035156 9.71875 -2.484375 11.46875 -2.484375 C 12.90625 -2.484375 14.101562 -2.816406 15.0625 -3.484375 C 16.03125 -4.160156 16.707031 -5.054688 17.09375 -6.171875 L 20.671875 -6.171875 C 20.140625 -4.242188 19.066406 -2.675781 17.453125 -1.46875 C 15.847656 -0.269531 13.851562 0.328125 11.46875 0.328125 C 9.570312 0.328125 7.875 -0.0976562 6.375 -0.953125 C 4.875 -1.804688 3.695312 -3.015625 2.84375 -4.578125 C 2 -6.148438 1.578125 -7.972656 1.578125 -10.046875 C 1.578125 -12.117188 1.988281 -13.929688 2.8125 -15.484375 C 3.644531 -17.046875 4.804688 -18.242188 6.296875 -19.078125 C 7.796875 -19.921875 9.519531 -20.34375 11.46875 -20.34375 C 13.363281 -20.34375 15.039062 -19.925781 16.5 -19.09375 C 17.96875 -18.269531 19.097656 -17.132812 19.890625 -15.6875 C 20.679688 -14.238281 21.078125 -12.601562 21.078125 -10.78125 Z M 17.640625 -11.46875 C 17.640625 -12.738281 17.359375 -13.828125 16.796875 -14.734375 C 16.242188 -15.648438 15.484375 -16.34375 14.515625 -16.8125 C 13.554688 -17.289062 12.492188 -17.53125 11.328125 -17.53125 C 9.640625 -17.53125 8.207031 -16.992188 7.03125 -15.921875 C 5.851562 -14.847656 5.175781 -13.363281 5 -11.46875 Z M 17.640625 -11.46875 "/></g></g></g><g fill="#fefefe" fill-opacity="1"><g transform="translate(644.504743, 468.741594)"><g><path d="M 6.140625 -16.296875 C 6.816406 -17.484375 7.8125 -18.453125 9.125 -19.203125 C 10.445312 -19.960938 11.945312 -20.34375 13.625 -20.34375 C 15.425781 -20.34375 17.046875 -19.914062 18.484375 -19.0625 C 19.921875 -18.21875 21.050781 -17.019531 21.875 -15.46875 C 22.707031 -13.925781 23.125 -12.128906 23.125 -10.078125 C 23.125 -8.054688 22.707031 -6.253906 21.875 -4.671875 C 21.050781 -3.085938 19.914062 -1.859375 18.46875 -0.984375 C 17.019531 -0.109375 15.40625 0.328125 13.625 0.328125 C 11.894531 0.328125 10.378906 -0.046875 9.078125 -0.796875 C 7.773438 -1.554688 6.796875 -2.519531 6.140625 -3.6875 L 6.140625 0 L 2.8125 0 L 2.8125 -27.03125 L 6.140625 -27.03125 Z M 19.734375 -10.078125 C 19.734375 -11.585938 19.425781 -12.898438 18.8125 -14.015625 C 18.207031 -15.140625 17.382812 -15.992188 16.34375 -16.578125 C 15.3125 -17.171875 14.175781 -17.46875 12.9375 -17.46875 C 11.71875 -17.46875 10.585938 -17.164062 9.546875 -16.5625 C 8.515625 -15.96875 7.6875 -15.101562 7.0625 -13.96875 C 6.445312 -12.84375 6.140625 -11.535156 6.140625 -10.046875 C 6.140625 -8.535156 6.445312 -7.210938 7.0625 -6.078125 C 7.6875 -4.953125 8.515625 -4.085938 9.546875 -3.484375 C 10.585938 -2.890625 11.71875 -2.59375 12.9375 -2.59375 C 14.175781 -2.59375 15.3125 -2.890625 16.34375 -3.484375 C 17.382812 -4.085938 18.207031 -4.953125 18.8125 -6.078125 C 19.425781 -7.210938 19.734375 -8.546875 19.734375 -10.078125 Z M 19.734375 -10.078125 "/></g></g></g></svg>