<svg xmlns="http://www.w3.org/2000/svg" xmlns:xlink="http://www.w3.org/1999/xlink" width="1000" zoomAndPan="magnify" viewBox="0 0 750 749.999995" height="1000" preserveAspectRatio="xMidYMid meet" version="1.0"><defs><clipPath id="3c7189b55b"><path d="M 184.640625 184.640625 L 548.390625 184.640625 L 548.390625 548.390625 L 184.640625 548.390625 Z M 184.640625 184.640625 " clip-rule="nonzero"/></clipPath></defs><rect x="-75" width="900" fill="#ffffff" y="-74.999999" height="899.999994" fill-opacity="1"/><rect x="-75" width="900" fill="#fefefe" y="-74.999999" height="899.999994" fill-opacity="1"/><path fill="#100f0d" d="M 424.4375 391.613281 C 434.402344 368.527344 430.011719 340.722656 411.175781 321.886719 C 396.15625 306.871094 375.460938 301.082031 356.019531 304.414062 L 392.8125 341.203125 L 380.554688 380.480469 L 341.378906 392.835938 L 304.585938 356.042969 C 301.300781 375.53125 307.113281 396.253906 322.132812 411.273438 C 340.964844 430.109375 368.726562 434.453125 391.746094 424.429688 L 485.535156 518.21875 C 494.574219 527.253906 509.21875 527.238281 518.246094 518.175781 C 527.273438 509.113281 527.265625 494.4375 518.222656 485.402344 L 424.4375 391.613281 " fill-opacity="1" fill-rule="nonzero"/><g clip-path="url(#3c7189b55b)"><path fill="#100f0d" d="M 505.832031 340.375 C 502.152344 320.707031 494.480469 302.457031 483.582031 286.550781 L 507.972656 250.734375 L 482.378906 225.144531 L 446.566406 249.535156 C 430.660156 238.636719 412.414062 230.964844 392.742188 227.285156 L 384.65625 184.664062 L 348.460938 184.664062 L 340.378906 227.285156 C 320.703125 230.964844 302.457031 238.636719 286.550781 249.535156 L 250.734375 225.144531 L 225.144531 250.734375 L 249.535156 286.550781 C 238.636719 302.457031 230.964844 320.707031 227.289062 340.375 L 184.664062 348.460938 L 184.664062 384.65625 L 227.289062 392.742188 C 230.964844 412.410156 238.636719 430.660156 249.535156 446.566406 L 225.144531 482.378906 L 250.734375 507.972656 L 286.550781 483.582031 C 302.457031 494.480469 320.703125 502.152344 340.375 505.828125 L 348.460938 548.453125 L 384.65625 548.453125 L 392.742188 505.828125 C 402.933594 503.925781 412.714844 500.902344 422.011719 496.960938 L 389.574219 464.554688 C 382.171875 466.285156 374.492188 467.296875 366.558594 467.296875 C 310.921875 467.296875 265.820312 422.199219 265.820312 366.558594 C 265.820312 310.917969 310.921875 265.820312 366.558594 265.820312 C 422.195312 265.820312 467.296875 310.917969 467.296875 366.558594 C 467.296875 374.496094 466.285156 382.1875 464.550781 389.597656 L 496.972656 421.988281 C 500.910156 412.699219 503.925781 402.921875 505.832031 392.742188 L 548.453125 384.65625 L 548.453125 348.460938 L 505.832031 340.375 " fill-opacity="1" fill-rule="nonzero"/></g></svg>