<svg xmlns="http://www.w3.org/2000/svg" xmlns:xlink="http://www.w3.org/1999/xlink" width="1000" zoomAndPan="magnify" viewBox="0 0 750 749.999995" height="1000" preserveAspectRatio="xMidYMid meet" version="1.0"><defs><clipPath id="ff9a0fb9c6"><path d="M 246.449219 162.519531 L 503.699219 162.519531 L 503.699219 587.769531 L 246.449219 587.769531 Z M 246.449219 162.519531 " clip-rule="nonzero"/></clipPath></defs><rect x="-75" width="900" fill="#ffffff" y="-74.999999" height="899.999994" fill-opacity="1"/><rect x="-75" width="900" fill="#fefefe" y="-74.999999" height="899.999994" fill-opacity="1"/><path fill="#000000" d="M 318.136719 325.96875 C 314.535156 325.96875 311.613281 328.890625 311.613281 332.492188 C 311.613281 336.097656 314.535156 339.019531 318.136719 339.019531 L 440.09375 339.019531 L 425.566406 393.246094 L 336.363281 393.246094 C 332.757812 393.246094 329.835938 396.167969 329.835938 399.769531 C 329.835938 403.375 332.757812 406.296875 336.363281 406.296875 L 430.453125 406.296875 C 433.378906 406.347656 436.074219 404.414062 436.867188 401.460938 L 436.859375 401.453125 L 454.789062 334.527344 C 455 333.886719 455.113281 333.203125 455.113281 332.492188 C 455.113281 328.890625 452.191406 325.96875 448.589844 325.96875 Z M 318.136719 325.96875 " fill-opacity="1" fill-rule="nonzero"/><path fill="#000000" d="M 287.046875 300.457031 C 283.445312 300.457031 280.523438 303.378906 280.523438 306.984375 C 280.523438 310.589844 283.445312 313.511719 287.046875 313.511719 L 306.140625 313.511719 L 336.769531 427.828125 L 336.761719 427.835938 C 337.554688 430.789062 340.25 432.722656 343.175781 432.671875 L 428.46875 432.671875 C 432.070312 432.671875 434.992188 429.75 434.992188 426.144531 C 434.992188 422.542969 432.070312 419.621094 428.46875 419.621094 L 348.066406 419.621094 L 317.527344 305.640625 C 316.90625 302.679688 314.28125 300.457031 311.140625 300.457031 Z M 287.046875 300.457031 " fill-opacity="1" fill-rule="nonzero"/><path fill="#000000" d="M 326.988281 359.605469 C 323.386719 359.605469 320.464844 362.527344 320.464844 366.132812 C 320.464844 369.734375 323.386719 372.65625 326.988281 372.65625 L 439.574219 372.65625 C 443.179688 372.65625 446.101562 369.734375 446.101562 366.132812 C 446.101562 362.527344 443.179688 359.605469 439.574219 359.605469 Z M 326.988281 359.605469 " fill-opacity="1" fill-rule="nonzero"/><path fill="#000000" d="M 351.101562 330.835938 C 350.183594 327.359375 346.625 325.28125 343.148438 326.195312 C 339.671875 327.113281 337.59375 330.671875 338.507812 334.148438 L 356.378906 401.425781 C 357.296875 404.90625 360.855469 406.980469 364.332031 406.066406 C 367.8125 405.152344 369.886719 401.589844 368.972656 398.113281 Z M 351.101562 330.835938 " fill-opacity="1" fill-rule="nonzero"/><path fill="#000000" d="M 428.21875 334.148438 C 429.132812 330.671875 427.058594 327.113281 423.578125 326.195312 C 420.101562 325.28125 416.542969 327.359375 415.628906 330.835938 L 397.753906 398.113281 C 396.839844 401.589844 398.917969 405.152344 402.394531 406.066406 C 405.871094 406.980469 409.429688 404.90625 410.347656 401.425781 Z M 428.21875 334.148438 " fill-opacity="1" fill-rule="nonzero"/><path fill="#000000" d="M 389.886719 332.492188 C 389.886719 328.890625 386.96875 325.96875 383.363281 325.96875 C 379.757812 325.96875 376.835938 328.890625 376.835938 332.492188 L 376.835938 399.769531 C 376.835938 403.375 379.757812 406.296875 383.363281 406.296875 C 386.96875 406.296875 389.886719 403.375 389.886719 399.769531 Z M 389.886719 332.492188 " fill-opacity="1" fill-rule="nonzero"/><path fill="#000000" d="M 362.402344 448.660156 C 362.402344 449.222656 362.347656 449.78125 362.234375 450.332031 C 362.125 450.886719 361.964844 451.421875 361.746094 451.941406 C 361.53125 452.460938 361.269531 452.957031 360.957031 453.425781 C 360.644531 453.890625 360.289062 454.324219 359.890625 454.722656 C 359.492188 455.121094 359.058594 455.476562 358.589844 455.789062 C 358.121094 456.101562 357.628906 456.367188 357.109375 456.582031 C 356.585938 456.796875 356.050781 456.960938 355.5 457.070312 C 354.949219 457.179688 354.390625 457.234375 353.828125 457.234375 C 353.265625 457.234375 352.707031 457.179688 352.152344 457.070312 C 351.601562 456.960938 351.066406 456.796875 350.546875 456.582031 C 350.027344 456.367188 349.53125 456.101562 349.0625 455.789062 C 348.59375 455.476562 348.164062 455.121094 347.765625 454.722656 C 347.367188 454.324219 347.011719 453.890625 346.699219 453.425781 C 346.386719 452.957031 346.121094 452.460938 345.90625 451.941406 C 345.691406 451.421875 345.527344 450.886719 345.417969 450.332031 C 345.308594 449.78125 345.253906 449.222656 345.253906 448.660156 C 345.253906 448.097656 345.308594 447.539062 345.417969 446.988281 C 345.527344 446.433594 345.691406 445.898438 345.90625 445.378906 C 346.121094 444.859375 346.386719 444.363281 346.699219 443.894531 C 347.011719 443.429688 347.367188 442.996094 347.765625 442.597656 C 348.164062 442.199219 348.59375 441.84375 349.0625 441.53125 C 349.53125 441.21875 350.027344 440.953125 350.546875 440.738281 C 351.066406 440.523438 351.601562 440.359375 352.152344 440.25 C 352.707031 440.140625 353.265625 440.085938 353.828125 440.085938 C 354.390625 440.085938 354.949219 440.140625 355.5 440.25 C 356.050781 440.359375 356.585938 440.523438 357.109375 440.738281 C 357.628906 440.953125 358.121094 441.21875 358.589844 441.53125 C 359.058594 441.84375 359.492188 442.199219 359.890625 442.597656 C 360.289062 442.996094 360.644531 443.429688 360.957031 443.894531 C 361.269531 444.363281 361.53125 444.859375 361.746094 445.378906 C 361.964844 445.898438 362.125 446.433594 362.234375 446.988281 C 362.347656 447.539062 362.402344 448.097656 362.402344 448.660156 Z M 362.402344 448.660156 " fill-opacity="1" fill-rule="nonzero"/><path fill="#000000" d="M 430.8125 449.847656 C 430.8125 450.410156 430.753906 450.964844 430.644531 451.519531 C 430.535156 452.070312 430.375 452.605469 430.15625 453.128906 C 429.941406 453.648438 429.679688 454.140625 429.367188 454.609375 C 429.054688 455.078125 428.699219 455.511719 428.300781 455.910156 C 427.902344 456.308594 427.46875 456.664062 427 456.976562 C 426.53125 457.289062 426.039062 457.550781 425.519531 457.769531 C 424.996094 457.984375 424.460938 458.144531 423.910156 458.257812 C 423.355469 458.367188 422.800781 458.421875 422.238281 458.421875 C 421.675781 458.421875 421.117188 458.367188 420.5625 458.257812 C 420.011719 458.144531 419.476562 457.984375 418.957031 457.769531 C 418.4375 457.550781 417.941406 457.289062 417.472656 456.976562 C 417.003906 456.664062 416.570312 456.308594 416.175781 455.910156 C 415.777344 455.511719 415.421875 455.078125 415.109375 454.609375 C 414.796875 454.140625 414.53125 453.648438 414.316406 453.128906 C 414.101562 452.605469 413.9375 452.070312 413.828125 451.519531 C 413.71875 450.964844 413.664062 450.410156 413.664062 449.847656 C 413.664062 449.28125 413.71875 448.726562 413.828125 448.171875 C 413.9375 447.621094 414.101562 447.085938 414.316406 446.566406 C 414.53125 446.042969 414.796875 445.550781 415.109375 445.082031 C 415.421875 444.613281 415.777344 444.179688 416.175781 443.78125 C 416.570312 443.382812 417.003906 443.027344 417.472656 442.714844 C 417.941406 442.402344 418.4375 442.140625 418.957031 441.925781 C 419.476562 441.707031 420.011719 441.546875 420.5625 441.4375 C 421.117188 441.328125 421.675781 441.269531 422.238281 441.269531 C 422.800781 441.269531 423.355469 441.328125 423.910156 441.4375 C 424.460938 441.546875 424.996094 441.707031 425.519531 441.925781 C 426.039062 442.140625 426.53125 442.402344 427 442.714844 C 427.46875 443.027344 427.902344 443.382812 428.300781 443.78125 C 428.699219 444.179688 429.054688 444.613281 429.367188 445.082031 C 429.679688 445.550781 429.941406 446.042969 430.15625 446.566406 C 430.375 447.085938 430.535156 447.621094 430.644531 448.171875 C 430.753906 448.726562 430.8125 449.28125 430.8125 449.847656 Z M 430.8125 449.847656 " fill-opacity="1" fill-rule="nonzero"/><g clip-path="url(#ff9a0fb9c6)"><path fill="#000000" d="M 503.699219 555.972656 C 503.699219 573.457031 489.394531 587.765625 471.90625 587.765625 L 278.511719 587.765625 C 261.023438 587.765625 246.71875 573.457031 246.71875 555.972656 L 246.71875 533.375 C 246.71875 420.351562 246.71875 307.332031 246.71875 194.308594 C 246.71875 176.820312 261.023438 162.515625 278.511719 162.515625 L 471.90625 162.515625 C 489.394531 162.515625 503.699219 176.820312 503.699219 194.308594 C 503.699219 314.863281 503.699219 435.417969 503.699219 555.972656 Z M 479.136719 271.769531 L 479.136719 216.90625 L 271.28125 216.90625 L 271.28125 533.375 L 479.136719 533.375 C 479.136719 446.171875 479.136719 358.972656 479.136719 271.769531 Z M 375.667969 542.394531 C 385.707031 542.394531 393.84375 550.53125 393.84375 560.570312 C 393.84375 570.609375 385.707031 578.75 375.667969 578.75 C 365.628906 578.75 357.492188 570.609375 357.492188 560.570312 C 357.492188 550.53125 365.628906 542.394531 375.667969 542.394531 Z M 327.605469 186.535156 C 325.507812 186.535156 323.808594 188.238281 323.808594 190.332031 C 323.808594 192.429688 325.507812 194.128906 327.605469 194.128906 L 344.824219 194.128906 C 346.921875 194.128906 348.621094 192.429688 348.621094 190.332031 C 348.621094 188.238281 346.921875 186.535156 344.824219 186.535156 Z M 361.546875 186.535156 C 359.453125 186.535156 357.753906 188.238281 357.753906 190.332031 C 357.753906 192.429688 359.453125 194.128906 361.546875 194.128906 L 422.8125 194.128906 C 424.910156 194.128906 426.609375 192.429688 426.609375 190.332031 C 426.609375 188.238281 424.910156 186.535156 422.8125 186.535156 Z M 361.546875 186.535156 " fill-opacity="1" fill-rule="evenodd"/></g></svg>